<svg width="495" height="139" viewBox="0 0 495 139" fill="none" xmlns="http://www.w3.org/2000/svg">
<g clip-path="url(#clip0)">
<rect width="495" height="139" fill="black"/>
<path d="M464.062 -1L454.1 16.24L445.442 31.2L383.14 139H-0.997986V-1H464.062Z" fill="#1F434B"/>
<g filter="url(#filter0_d)">
<path d="M30.596 63.265C27.628 63.265 25.3843 62.4523 23.865 60.827C22.3457 59.1663 21.586 56.958 21.586 54.202C21.586 52.6473 21.8157 50.757 22.275 48.531L25.561 33.373C25.6317 33.0903 25.7907 32.313 26.038 31.041C26.3207 29.769 26.462 28.391 26.462 26.907C26.462 26.059 26.2853 25.423 25.932 24.999C25.614 24.575 25.1723 24.363 24.607 24.363C23.547 24.363 22.3103 24.8753 20.897 25.9C19.4837 26.8893 17.9997 28.4263 16.445 30.511C15.9503 31.1823 15.4027 31.518 14.802 31.518C14.3073 31.518 13.8657 31.2883 13.477 30.829C13.1237 30.3343 12.947 29.7867 12.947 29.186C12.947 28.0907 13.4417 26.854 14.431 25.476C18.035 20.5293 22.2573 18.056 27.098 18.056C29.2533 18.056 30.9317 18.7097 32.133 20.017C33.3697 21.3243 33.988 23.25 33.988 25.794C33.988 27.596 33.8643 29.2567 33.617 30.776C33.3697 32.2953 32.9457 34.3623 32.345 36.977L30.172 46.676C30.1013 46.994 29.9777 47.5593 29.801 48.372C29.6243 49.1847 29.483 49.962 29.377 50.704C29.271 51.4107 29.218 52.1173 29.218 52.824C29.218 53.9547 29.536 54.8557 30.172 55.527C30.808 56.1983 31.709 56.534 32.875 56.534C34.995 56.534 37.1327 55.4033 39.288 53.142C41.4787 50.8807 43.4927 47.2413 45.33 42.224C47.2027 37.1713 48.6513 30.723 49.676 22.879C49.9233 21.077 50.2767 19.8227 50.736 19.116C51.2307 18.4093 52.167 18.056 53.545 18.056C54.7817 18.056 55.7003 18.427 56.301 19.169C56.9017 19.911 57.202 21.1123 57.202 22.773C57.202 23.727 57.0783 24.9813 56.831 26.536C56.619 28.0907 56.2833 30.2637 55.824 33.055C54.87 38.461 54.1103 43.4253 53.545 47.948C53.2623 49.9973 53.121 51.5167 53.121 52.506C53.121 53.9547 53.439 55.0677 54.075 55.845C54.7463 56.587 55.6297 56.958 56.725 56.958C57.891 56.958 59.0217 56.5693 60.117 55.792C61.2477 55.0147 62.5727 53.725 64.092 51.923C64.516 51.4283 64.993 51.181 65.523 51.181C65.9823 51.181 66.3357 51.393 66.583 51.817C66.8657 52.241 67.007 52.824 67.007 53.566C67.007 54.944 66.6713 56.0393 66 56.852C64.1627 59.078 62.343 60.7033 60.541 61.728C58.739 62.7527 56.8487 63.265 54.87 63.265C51.9373 63.265 49.6937 62.523 48.139 61.039C46.5843 59.5197 45.807 57.5587 45.807 55.156C45.807 53.8133 46.0897 51.1987 46.655 47.312C44.8883 52.506 42.6447 56.4633 39.924 59.184C37.2387 61.9047 34.1293 63.265 30.596 63.265ZM86.3334 51.181C86.7927 51.181 87.146 51.393 87.3934 51.817C87.676 52.241 87.8174 52.824 87.8174 53.566C87.8174 54.9793 87.4817 56.0747 86.8104 56.852C85.291 58.7247 83.6304 60.2617 81.8284 61.463C80.0264 62.6643 77.9594 63.265 75.6274 63.265C68.4194 63.265 64.8154 58.1947 64.8154 48.054C64.8154 46.4993 64.8684 44.927 64.9744 43.337H62.9074C61.8474 43.337 61.123 43.1427 60.7344 42.754C60.381 42.3653 60.2044 41.747 60.2044 40.899C60.2044 38.9203 60.9994 37.931 62.5894 37.931H65.6104C66.211 34.0443 67.1297 30.4933 68.3664 27.278C69.603 24.0627 71.087 21.501 72.8184 19.593C74.585 17.685 76.4754 16.731 78.4894 16.731C79.9734 16.731 81.1394 17.3847 81.9874 18.692C82.8354 19.9993 83.2594 21.6423 83.2594 23.621C83.2594 29.0977 80.9627 33.8677 76.3694 37.931H82.3054C82.8707 37.931 83.277 38.0547 83.5244 38.302C83.7717 38.5493 83.8954 39.0087 83.8954 39.68C83.8954 42.118 81.899 43.337 77.9064 43.337H71.4404C71.3697 45.1037 71.3344 46.4817 71.3344 47.471C71.3344 51.1457 71.7584 53.725 72.6064 55.209C73.4897 56.693 74.8677 57.435 76.7404 57.435C78.2597 57.435 79.6024 56.9757 80.7684 56.057C81.9344 55.1383 83.3124 53.7603 84.9024 51.923C85.3264 51.4283 85.8034 51.181 86.3334 51.181ZM77.0584 21.819C76.5284 21.819 75.9277 22.4903 75.2564 23.833C74.6204 25.1403 74.002 26.9777 73.4014 29.345C72.836 31.677 72.359 34.274 71.9704 37.136C74.055 35.334 75.6097 33.32 76.6344 31.094C77.6944 28.8327 78.2244 26.7833 78.2244 24.946C78.2244 22.8613 77.8357 21.819 77.0584 21.819ZM88.908 63.265C87.318 63.265 86.0107 62.5407 84.986 61.092C83.9967 59.608 83.502 57.7707 83.502 55.58C83.502 52.93 83.6787 50.5097 84.032 48.319C84.3853 46.093 84.9683 43.7433 85.781 41.27C86.1343 40.21 86.629 39.4503 87.265 38.991C87.901 38.5317 88.908 38.302 90.286 38.302C91.0633 38.302 91.5933 38.4257 91.876 38.673C92.194 38.9203 92.353 39.2913 92.353 39.786C92.353 40.0687 92.1587 41.0227 91.77 42.648C91.4167 43.9553 91.134 45.139 90.922 46.199C90.2153 49.909 89.862 52.3823 89.862 53.619C89.862 54.361 89.9503 54.891 90.127 55.209C90.3037 55.4917 90.5863 55.633 90.975 55.633C91.505 55.633 92.1587 55.103 92.936 54.043C93.7487 52.983 94.5967 51.3753 95.48 49.22C96.3987 47.0647 97.282 44.4147 98.13 41.27C98.4127 40.21 98.8367 39.4503 99.402 38.991C100.003 38.5317 100.886 38.302 102.052 38.302C102.865 38.302 103.43 38.408 103.748 38.62C104.066 38.7967 104.225 39.15 104.225 39.68C104.225 40.5633 103.783 42.9837 102.9 46.941C101.911 51.4637 101.416 54.255 101.416 55.315C101.416 55.9863 101.557 56.5163 101.84 56.905C102.123 57.2583 102.494 57.435 102.953 57.435C103.66 57.435 104.49 57.011 105.444 56.163C106.433 55.2797 107.741 53.8663 109.366 51.923C109.79 51.4283 110.267 51.181 110.797 51.181C111.256 51.181 111.61 51.393 111.857 51.817C112.14 52.241 112.281 52.824 112.281 53.566C112.281 54.9793 111.945 56.0747 111.274 56.852C109.755 58.7247 108.112 60.2617 106.345 61.463C104.614 62.6643 102.635 63.265 100.409 63.265C98.713 63.265 97.4587 62.6113 96.646 61.304C95.8687 59.9967 95.48 58.1593 95.48 55.792C94.8793 58.1947 93.9783 60.0497 92.777 61.357C91.5757 62.629 90.286 63.265 88.908 63.265ZM136.179 46.729C136.639 46.729 136.992 46.9587 137.239 47.418C137.487 47.8773 137.61 48.4603 137.61 49.167C137.61 50.0503 137.487 50.7393 137.239 51.234C136.992 51.6933 136.603 52.0113 136.073 52.188C133.953 52.93 131.621 53.354 129.077 53.46C128.371 56.3927 127.028 58.76 125.049 60.562C123.106 62.364 120.951 63.265 118.583 63.265C115.015 63.265 112.418 61.9047 110.792 59.184C109.167 56.4633 108.354 52.5237 108.354 47.365C108.354 42.807 108.92 37.8603 110.05 32.525C111.181 27.1543 112.824 22.5963 114.979 18.851C117.17 15.0703 119.767 13.18 122.77 13.18C124.396 13.18 125.703 13.8867 126.692 15.3C127.682 16.678 128.176 18.48 128.176 20.706C128.176 23.6033 127.629 26.483 126.533 29.345C125.438 32.207 123.618 35.2103 121.074 38.355C123.442 38.5317 125.367 39.521 126.851 41.323C128.335 43.0897 129.219 45.2803 129.501 47.895C131.162 47.789 133.141 47.4357 135.437 46.835C135.649 46.7643 135.897 46.729 136.179 46.729ZM121.551 18.427C120.845 18.427 120.067 19.487 119.219 21.607C118.407 23.6917 117.647 26.536 116.94 30.14C116.234 33.744 115.704 37.6837 115.35 41.959C117.682 37.6837 119.537 33.9207 120.915 30.67C122.329 27.384 123.035 24.469 123.035 21.925C123.035 20.7943 122.894 19.9287 122.611 19.328C122.364 18.7273 122.011 18.427 121.551 18.427ZM118.795 57.647C119.891 57.647 120.862 57.1877 121.71 56.269C122.558 55.3503 123.124 54.0253 123.406 52.294C122.311 51.552 121.463 50.5803 120.862 49.379C120.297 48.1777 120.014 46.9057 120.014 45.563C120.014 45.0683 120.085 44.397 120.226 43.549H120.067C118.619 43.549 117.4 44.2733 116.41 45.722C115.456 47.1353 114.979 49.0433 114.979 51.446C114.979 53.46 115.35 54.997 116.092 56.057C116.87 57.117 117.771 57.647 118.795 57.647ZM152.008 52.771C152.468 52.771 152.821 52.983 153.068 53.407C153.351 53.831 153.492 54.414 153.492 55.156C153.492 56.428 153.192 57.5233 152.591 58.442C151.602 59.9613 150.295 61.145 148.669 61.993C147.079 62.841 145.171 63.265 142.945 63.265C139.553 63.265 136.921 62.258 135.048 60.244C133.176 58.1947 132.239 55.4387 132.239 51.976C132.239 49.538 132.752 47.2767 133.776 45.192C134.801 43.072 136.214 41.3937 138.016 40.157C139.854 38.9203 141.921 38.302 144.217 38.302C146.267 38.302 147.91 38.9203 149.146 40.157C150.383 41.3583 151.001 43.0013 151.001 45.086C151.001 47.524 150.118 49.6263 148.351 51.393C146.62 53.1243 143.652 54.5023 139.447 55.527C140.295 57.1523 141.726 57.965 143.74 57.965C145.189 57.965 146.373 57.6293 147.291 56.958C148.245 56.2867 149.341 55.156 150.577 53.566C151.001 53.036 151.478 52.771 152.008 52.771ZM143.316 43.496C142.009 43.496 140.896 44.2557 139.977 45.775C139.094 47.2943 138.652 49.1317 138.652 51.287V51.393C140.737 50.8983 142.38 50.1563 143.581 49.167C144.783 48.1777 145.383 47.0293 145.383 45.722C145.383 45.0507 145.189 44.5207 144.8 44.132C144.447 43.708 143.952 43.496 143.316 43.496Z" fill="white"/>
</g>
<path d="M160.846 94.181C161.305 94.181 161.659 94.393 161.906 94.817C162.189 95.241 162.33 95.824 162.33 96.566C162.33 97.9793 161.994 99.0747 161.323 99.852C159.804 101.725 158.161 103.262 156.394 104.463C154.663 105.664 152.684 106.265 150.458 106.265C148.585 106.265 147.066 105.594 145.9 104.251C143.886 105.558 141.784 106.23 139.593 106.265C139.134 113.084 138.091 118.773 136.466 123.331C134.841 127.924 132.456 130.221 129.311 130.221C127.403 130.221 125.99 129.532 125.071 128.154C124.152 126.776 123.693 124.868 123.693 122.43C123.693 118.967 124.488 114.922 126.078 110.293C127.668 105.7 130.124 100.629 133.445 95.082C133.445 89.9233 133.41 86.337 133.339 84.323C133.304 83.2983 133.71 82.4857 134.558 81.885C135.406 81.2843 136.466 80.984 137.738 80.984C138.48 80.984 139.01 81.143 139.328 81.461C139.681 81.7437 139.876 82.3267 139.911 83.21C139.911 84.0933 139.929 84.747 139.964 85.171C141.095 83.7577 142.208 82.7507 143.303 82.15C144.398 81.514 145.564 81.196 146.801 81.196C148.78 81.196 150.387 81.991 151.624 83.581C152.896 85.171 153.532 87.2557 153.532 89.835C153.532 91.7077 153.232 93.5273 152.631 95.294C152.03 97.0607 151.2 98.6683 150.14 100.117C150.882 100.329 151.5 100.435 151.995 100.435C153.161 100.435 154.274 100.011 155.334 99.163C156.394 98.315 157.754 96.9017 159.415 94.923C159.839 94.4283 160.316 94.181 160.846 94.181ZM139.858 101.177C141.13 100.894 142.296 100.205 143.356 99.11C144.451 97.9793 145.317 96.6013 145.953 94.976C146.589 93.3153 146.907 91.584 146.907 89.782C146.907 88.722 146.695 87.927 146.271 87.397C145.847 86.8317 145.282 86.549 144.575 86.549C143.303 86.549 141.766 87.8917 139.964 90.577C139.929 92.1317 139.911 94.4107 139.911 97.414C139.911 99.0393 139.893 100.294 139.858 101.177ZM129.735 125.027C130.689 125.027 131.484 122.942 132.12 118.773C132.756 114.639 133.162 109.48 133.339 103.297C131.82 106.83 130.618 110.205 129.735 113.42C128.852 116.635 128.41 119.338 128.41 121.529C128.41 122.66 128.551 123.525 128.834 124.126C129.081 124.727 129.382 125.027 129.735 125.027ZM178.148 94.181C178.607 94.181 178.96 94.393 179.208 94.817C179.49 95.241 179.632 95.824 179.632 96.566C179.632 97.9793 179.296 99.0747 178.625 99.852C177.105 101.725 175.445 103.262 173.643 104.463C171.876 105.664 169.862 106.265 167.601 106.265C164.491 106.265 162.177 104.852 160.658 102.025C159.174 99.1983 158.432 95.5413 158.432 91.054C158.432 86.7433 158.979 81.832 160.075 76.32C161.205 70.808 162.848 66.0733 165.004 62.116C167.194 58.1587 169.791 56.18 172.795 56.18C174.491 56.18 175.816 56.975 176.77 58.565C177.759 60.1197 178.254 62.3633 178.254 65.296C178.254 69.5007 177.088 74.3767 174.756 79.924C172.424 85.4713 169.261 90.9657 165.269 96.407C165.516 97.8557 165.922 98.898 166.488 99.534C167.053 100.135 167.795 100.435 168.714 100.435C170.162 100.435 171.434 100.029 172.53 99.216C173.625 98.368 175.021 96.937 176.717 94.923C177.141 94.4283 177.618 94.181 178.148 94.181ZM171.629 61.427C170.816 61.427 169.897 62.8933 168.873 65.826C167.848 68.7587 166.947 72.398 166.17 76.744C165.392 81.09 164.968 85.2593 164.898 89.252C167.406 85.118 169.403 80.984 170.887 76.85C172.371 72.6807 173.113 68.8823 173.113 65.455C173.113 62.7697 172.618 61.427 171.629 61.427ZM181.349 106.265C179.158 106.265 177.409 105.47 176.102 103.88C174.795 102.29 174.141 100.205 174.141 97.626C174.141 94.7993 174.795 92.1317 176.102 89.623C177.409 87.079 179.141 85.0473 181.296 83.528C183.487 81.9733 185.801 81.196 188.239 81.196C189.016 81.196 189.529 81.355 189.776 81.673C190.059 81.9557 190.288 82.4857 190.465 83.263C191.207 83.1217 191.984 83.051 192.797 83.051C194.528 83.051 195.394 83.6693 195.394 84.906C195.394 85.648 195.129 87.4147 194.599 90.206C193.786 94.2693 193.38 97.096 193.38 98.686C193.38 99.216 193.504 99.64 193.751 99.958C194.034 100.276 194.387 100.435 194.811 100.435C195.482 100.435 196.295 100.011 197.249 99.163C198.203 98.2797 199.493 96.8663 201.118 94.923C201.542 94.4283 202.019 94.181 202.549 94.181C203.008 94.181 203.362 94.393 203.609 94.817C203.892 95.241 204.033 95.824 204.033 96.566C204.033 97.9793 203.697 99.0747 203.026 99.852C201.577 101.654 200.04 103.173 198.415 104.41C196.79 105.647 195.217 106.265 193.698 106.265C192.532 106.265 191.454 105.876 190.465 105.099C189.511 104.286 188.787 103.191 188.292 101.813C186.455 104.781 184.14 106.265 181.349 106.265ZM183.257 100.912C184.034 100.912 184.776 100.453 185.483 99.534C186.19 98.6153 186.702 97.3963 187.02 95.877L188.981 86.125C187.497 86.1603 186.119 86.7257 184.847 87.821C183.61 88.881 182.621 90.2943 181.879 92.061C181.137 93.8277 180.766 95.7003 180.766 97.679C180.766 98.7743 180.978 99.587 181.402 100.117C181.861 100.647 182.48 100.912 183.257 100.912ZM226.862 94.287C227.321 94.287 227.674 94.5167 227.922 94.976C228.204 95.4 228.346 95.9477 228.346 96.619C228.346 97.4317 228.222 98.0677 227.975 98.527C227.727 98.9863 227.339 99.3927 226.809 99.746L216.633 106.583C215.29 113.897 213.523 119.639 211.333 123.808C209.177 128.013 206.421 130.115 203.065 130.115C201.263 130.115 199.796 129.55 198.666 128.419C197.535 127.324 196.97 125.875 196.97 124.073C196.97 122.412 197.341 120.716 198.083 118.985C198.86 117.254 200.273 115.257 202.323 112.996C204.407 110.77 207.34 108.208 211.121 105.311L211.28 104.092C211.527 102.785 211.81 100.912 212.128 98.474C211.421 101.018 210.432 102.961 209.16 104.304C207.888 105.611 206.545 106.265 205.132 106.265C203.542 106.265 202.234 105.541 201.21 104.092C200.22 102.608 199.726 100.771 199.726 98.58C199.726 95.93 199.902 93.5097 200.256 91.319C200.609 89.093 201.192 86.7433 202.005 84.27C202.358 83.21 202.853 82.4503 203.489 81.991C204.125 81.5317 205.132 81.302 206.51 81.302C207.287 81.302 207.817 81.4257 208.1 81.673C208.418 81.9203 208.577 82.2913 208.577 82.786C208.577 83.0687 208.382 84.0227 207.994 85.648C207.64 86.9553 207.358 88.139 207.146 89.199C206.863 90.6477 206.616 92.0433 206.404 93.386C206.192 94.6933 206.086 95.771 206.086 96.619C206.086 97.9617 206.457 98.633 207.199 98.633C207.729 98.633 208.382 98.103 209.16 97.043C209.972 95.983 210.82 94.3753 211.704 92.22C212.622 90.0647 213.506 87.4147 214.354 84.27C214.636 83.21 215.06 82.4503 215.626 81.991C216.226 81.5317 217.11 81.302 218.276 81.302C219.088 81.302 219.654 81.408 219.972 81.62C220.29 81.832 220.449 82.1853 220.449 82.68C220.449 83.5633 219.989 86.602 219.071 91.796L217.693 100.329C220.413 98.2797 223.063 96.407 225.643 94.711C226.102 94.4283 226.508 94.287 226.862 94.287ZM203.648 124.974C204.531 124.974 205.52 123.949 206.616 121.9C207.711 119.851 208.806 116.441 209.902 111.671C207.181 113.968 205.202 116.052 203.966 117.925C202.764 119.833 202.164 121.494 202.164 122.907C202.164 123.508 202.27 124.002 202.482 124.391C202.729 124.78 203.118 124.974 203.648 124.974ZM248.207 94.181C248.667 94.181 249.02 94.393 249.267 94.817C249.55 95.241 249.691 95.824 249.691 96.566C249.691 97.9793 249.356 99.0747 248.684 99.852C247.165 101.725 245.504 103.262 243.702 104.463C241.9 105.664 239.833 106.265 237.501 106.265C230.293 106.265 226.689 101.195 226.689 91.054C226.689 89.4993 226.742 87.927 226.848 86.337H224.781C223.721 86.337 222.997 86.1427 222.608 85.754C222.255 85.3653 222.078 84.747 222.078 83.899C222.078 81.9203 222.873 80.931 224.463 80.931H227.484C228.085 77.0443 229.004 73.4933 230.24 70.278C231.477 67.0627 232.961 64.501 234.692 62.593C236.459 60.685 238.349 59.731 240.363 59.731C241.847 59.731 243.013 60.3847 243.861 61.692C244.709 62.9993 245.133 64.6423 245.133 66.621C245.133 72.0977 242.837 76.8677 238.243 80.931H244.179C244.745 80.931 245.151 81.0547 245.398 81.302C245.646 81.5493 245.769 82.0087 245.769 82.68C245.769 85.118 243.773 86.337 239.78 86.337H233.314C233.244 88.1037 233.208 89.4817 233.208 90.471C233.208 94.1457 233.632 96.725 234.48 98.209C235.364 99.693 236.742 100.435 238.614 100.435C240.134 100.435 241.476 99.9757 242.642 99.057C243.808 98.1383 245.186 96.7603 246.776 94.923C247.2 94.4283 247.677 94.181 248.207 94.181ZM238.932 64.819C238.402 64.819 237.802 65.4903 237.13 66.833C236.494 68.1403 235.876 69.9777 235.275 72.345C234.71 74.677 234.233 77.274 233.844 80.136C235.929 78.334 237.484 76.32 238.508 74.094C239.568 71.8327 240.098 69.7833 240.098 67.946C240.098 65.8613 239.71 64.819 238.932 64.819ZM252.319 77.804C250.835 77.804 249.722 77.4683 248.98 76.797C248.238 76.0903 247.867 75.1187 247.867 73.882C247.867 72.6453 248.344 71.6207 249.298 70.808C250.287 69.96 251.506 69.536 252.955 69.536C254.262 69.536 255.322 69.854 256.135 70.49C256.948 71.126 257.354 72.027 257.354 73.193C257.354 74.6063 256.895 75.737 255.976 76.585C255.057 77.3977 253.838 77.804 252.319 77.804ZM251.895 106.265C249.598 106.265 247.92 105.452 246.86 103.827C245.835 102.202 245.323 100.046 245.323 97.361C245.323 95.771 245.517 93.7393 245.906 91.266C246.33 88.7573 246.86 86.4253 247.496 84.27C247.814 83.1393 248.238 82.362 248.768 81.938C249.298 81.514 250.146 81.302 251.312 81.302C253.114 81.302 254.015 81.9027 254.015 83.104C254.015 83.9873 253.679 86.0367 253.008 89.252C252.16 93.1387 251.736 95.771 251.736 97.149C251.736 98.209 251.877 99.0217 252.16 99.587C252.443 100.152 252.92 100.435 253.591 100.435C254.227 100.435 255.022 99.9933 255.976 99.11C256.93 98.2267 258.202 96.831 259.792 94.923C260.216 94.4283 260.693 94.181 261.223 94.181C261.682 94.181 262.036 94.393 262.283 94.817C262.566 95.241 262.707 95.824 262.707 96.566C262.707 97.9793 262.371 99.0747 261.7 99.852C258.202 104.127 254.934 106.265 251.895 106.265ZM262.182 106.265C260.839 106.265 259.885 105.558 259.32 104.145C258.79 102.732 258.525 100.47 258.525 97.361C258.525 92.7677 259.179 88.404 260.486 84.27C260.804 83.2453 261.316 82.5033 262.023 82.044C262.765 81.5493 263.79 81.302 265.097 81.302C265.804 81.302 266.298 81.3903 266.581 81.567C266.864 81.7437 267.005 82.0793 267.005 82.574C267.005 83.1393 266.74 84.4113 266.21 86.39C265.857 87.8033 265.574 89.04 265.362 90.1C265.15 91.1247 264.973 92.4143 264.832 93.969C265.786 91.213 266.917 88.881 268.224 86.973C269.567 85.065 270.927 83.6517 272.305 82.733C273.718 81.779 275.043 81.302 276.28 81.302C277.517 81.302 278.382 81.5847 278.877 82.15C279.407 82.7153 279.672 83.581 279.672 84.747C279.672 85.8777 279.336 87.927 278.665 90.895C278.382 92.167 278.188 93.121 278.082 93.757C279.849 89.411 281.81 86.2487 283.965 84.27C286.12 82.2913 288.134 81.302 290.007 81.302C292.304 81.302 293.452 82.4503 293.452 84.747C293.452 86.125 293.063 88.616 292.286 92.22C291.615 95.294 291.279 97.3257 291.279 98.315C291.279 99.7283 291.791 100.435 292.816 100.435C293.523 100.435 294.353 100.011 295.307 99.163C296.296 98.2797 297.604 96.8663 299.229 94.923C299.653 94.4283 300.13 94.181 300.66 94.181C301.119 94.181 301.473 94.393 301.72 94.817C302.003 95.241 302.144 95.824 302.144 96.566C302.144 97.9793 301.808 99.0747 301.137 99.852C299.618 101.725 297.975 103.262 296.208 104.463C294.477 105.664 292.498 106.265 290.272 106.265C288.47 106.265 287.11 105.753 286.191 104.728C285.272 103.668 284.813 102.149 284.813 100.17C284.813 99.1807 285.06 97.414 285.555 94.87C286.014 92.644 286.244 91.107 286.244 90.259C286.244 89.6937 286.05 89.411 285.661 89.411C285.202 89.411 284.548 90.0117 283.7 91.213C282.852 92.379 282.004 93.9337 281.156 95.877C280.308 97.8203 279.619 99.8697 279.089 102.025C278.7 103.721 278.241 104.852 277.711 105.417C277.216 105.982 276.404 106.265 275.273 106.265C274.107 106.265 273.224 105.717 272.623 104.622C272.058 103.491 271.775 102.131 271.775 100.541C271.775 99.1983 271.952 97.255 272.305 94.711C272.588 92.4497 272.729 90.9657 272.729 90.259C272.729 89.6937 272.535 89.411 272.146 89.411C271.616 89.411 270.945 90.047 270.132 91.319C269.319 92.591 268.524 94.2163 267.747 96.195C267.005 98.1737 266.404 100.117 265.945 102.025C265.556 103.686 265.097 104.816 264.567 105.417C264.072 105.982 263.277 106.265 262.182 106.265ZM316.832 95.771C317.292 95.771 317.645 95.983 317.892 96.407C318.175 96.831 318.316 97.414 318.316 98.156C318.316 99.428 318.016 100.523 317.415 101.442C316.426 102.961 315.119 104.145 313.493 104.993C311.903 105.841 309.995 106.265 307.769 106.265C304.377 106.265 301.745 105.258 299.872 103.244C298 101.195 297.063 98.4387 297.063 94.976C297.063 92.538 297.576 90.2767 298.6 88.192C299.625 86.072 301.038 84.3937 302.84 83.157C304.678 81.9203 306.745 81.302 309.041 81.302C311.091 81.302 312.734 81.9203 313.97 83.157C315.207 84.3583 315.825 86.0013 315.825 88.086C315.825 90.524 314.942 92.6263 313.175 94.393C311.444 96.1243 308.476 97.5023 304.271 98.527C305.119 100.152 306.55 100.965 308.564 100.965C310.013 100.965 311.197 100.629 312.115 99.958C313.069 99.2867 314.165 98.156 315.401 96.566C315.825 96.036 316.302 95.771 316.832 95.771ZM308.14 86.496C306.833 86.496 305.72 87.2557 304.801 88.775C303.918 90.2943 303.476 92.1317 303.476 94.287V94.393C305.561 93.8983 307.204 93.1563 308.405 92.167C309.607 91.1777 310.207 90.0293 310.207 88.722C310.207 88.0507 310.013 87.5207 309.624 87.132C309.271 86.708 308.776 86.496 308.14 86.496Z" fill="white"/>
<path d="M394.391 116.43L443.53 31.2L452.152 16.24L394.391 116.43ZM381.387 139L381.377 139.01L373.312 153" fill="black"/>
<path d="M483.906 69.5C483.906 102.866 449.677 131 405.953 131C362.229 131 328 102.866 328 69.5C328 36.1345 362.229 8 405.953 8C449.677 8 483.906 36.1345 483.906 69.5Z" fill="black" stroke="white" stroke-width="6"/>
<path d="M443.635 34L443.542 114.38L435.632 114.37L435.694 62.12L405.376 114.33L397.188 114.32L443.635 34Z" fill="white"/>
<rect width="5.14365" height="180.356" transform="matrix(0.87833 0.478054 -0.500957 0.865472 455.569 -6)" fill="white"/>
</g>
<defs>
<filter id="filter0_d" x="8.94701" y="13.18" width="148.545" height="58.085" filterUnits="userSpaceOnUse" color-interpolation-filters="sRGB">
<feFlood flood-opacity="0" result="BackgroundImageFix"/>
<feColorMatrix in="SourceAlpha" type="matrix" values="0 0 0 0 0 0 0 0 0 0 0 0 0 0 0 0 0 0 127 0"/>
<feOffset dy="4"/>
<feGaussianBlur stdDeviation="2"/>
<feColorMatrix type="matrix" values="0 0 0 0 0 0 0 0 0 0 0 0 0 0 0 0 0 0 0.25 0"/>
<feBlend mode="normal" in2="BackgroundImageFix" result="effect1_dropShadow"/>
<feBlend mode="normal" in="SourceGraphic" in2="effect1_dropShadow" result="shape"/>
</filter>
<clipPath id="clip0">
<rect width="495" height="139" fill="white"/>
</clipPath>
</defs>
</svg>
